<?xml version="1.0" encoding="UTF-8" standalone="no"?>
<!DOCTYPE svg PUBLIC "-//W3C//DTD SVG 1.1//EN" "http://www.w3.org/Graphics/SVG/1.1/DTD/svg11.dtd">
<svg version="1.1" xmlns="http://www.w3.org/2000/svg" xmlns:xlink="http://www.w3.org/1999/xlink" preserveAspectRatio="xMidYMid meet" viewBox="0 0 24 20" width="24" height="20"><defs><path d="M19.07 14.02L19.25 14.18L19.38 14.4L19.47 14.65L19.5 14.94L19.47 15.22L19.38 15.47L19.25 15.69L19.07 15.85L18.86 15.96L18.63 16L5.37 16L5.14 15.96L4.93 15.85L4.75 15.69L4.62 15.47L4.53 15.22L4.5 14.94L4.53 14.65L4.62 14.4L4.75 14.18L4.93 14.02L5.14 13.91L5.37 13.87L18.63 13.87L18.86 13.91L19.07 14.02ZM19.07 9.08L19.25 9.25L19.38 9.46L19.47 9.72L19.5 10L19.47 10.28L19.38 10.54L19.25 10.75L19.07 10.92L18.86 11.03L18.63 11.06L5.37 11.06L5.14 11.03L4.93 10.92L4.75 10.75L4.62 10.54L4.53 10.28L4.5 10L4.53 9.72L4.62 9.46L4.75 9.25L4.93 9.08L5.14 8.97L5.37 8.93L18.63 8.93L18.86 8.97L19.07 9.08ZM19.07 4.15L19.25 4.31L19.38 4.53L19.47 4.78L19.5 5.06L19.47 5.35L19.38 5.6L19.25 5.82L19.07 5.98L18.86 6.09L18.63 6.13L5.37 6.13L5.14 6.09L4.93 5.98L4.75 5.82L4.62 5.6L4.53 5.35L4.5 5.06L4.53 4.78L4.62 4.53L4.75 4.31L4.93 4.15L5.14 4.04L5.37 4L18.63 4L18.86 4.04L19.07 4.15Z" id="bIfiQ9k2"></path></defs><g><g><g><use xlink:href="#bIfiQ9k2" opacity="1" fill="#000000" fill-opacity="1"></use><g><use xlink:href="#bIfiQ9k2" opacity="1" fill-opacity="0" stroke="#000000" stroke-width="1" stroke-opacity="0"></use></g></g></g></g></svg>