<?xml version="1.0" encoding="UTF-8" standalone="no"?>
<!DOCTYPE svg PUBLIC "-//W3C//DTD SVG 1.1//EN" "http://www.w3.org/Graphics/SVG/1.1/DTD/svg11.dtd">
<svg version="1.1" xmlns="http://www.w3.org/2000/svg" xmlns:xlink="http://www.w3.org/1999/xlink" preserveAspectRatio="xMidYMid meet" viewBox="0 0 14 14" width="14" height="14"><defs><path d="M11.51 5.89L8.56 8.84L5.6 11.79L2.96 12.93L2.25 13.24L1.6 13.51L1.05 13.75L0.61 13.94L0.32 14.07L0.2 14.13L0.17 14.14L0.16 14.14L0.14 14.14L0.14 14.12L0.14 14.11L0.16 14.08L0.21 13.96L0.34 13.67L0.53 13.24L0.77 12.69L1.04 12.06L1.34 11.36L2.45 8.73L5.42 5.75L8.4 2.77L9.95 4.32L11.51 5.89ZM2.86 9.64L2.64 10.1L2.39 10.66L1.74 12.08L1.96 12.3L2.18 12.52L3.59 11.89L4.14 11.65L4.6 11.44L4.92 11.3L5.05 11.23L4.99 11.13L4.8 10.91L4.5 10.59L4.13 10.21L3.74 9.82L3.42 9.51L3.19 9.3L3.09 9.22L3.01 9.34L2.86 9.64ZM13.4 0.88L13.93 1.63L14.14 2.47L14.08 2.91L13.88 3.35L13.53 3.84L13 4.41L12.28 5.12L10.73 3.55L9.16 2L9.87 1.28L10.18 0.98L10.5 0.71L10.8 0.48L11.02 0.35L11.22 0.27L11.44 0.2L11.65 0.16L11.82 0.14L12.65 0.34L13.4 0.88Z" id="jMavLZYo5"></path></defs><g><g><g><use xlink:href="#jMavLZYo5" opacity="1" fill="#000000" fill-opacity="1"></use><g><use xlink:href="#jMavLZYo5" opacity="1" fill-opacity="0" stroke="#000000" stroke-width="1" stroke-opacity="0"></use></g></g></g></g></svg>